<?xml version="1.0" encoding="utf-8"?>
<!DOCTYPE svg PUBLIC "-//W3C//DTD SVG 1.1//EN" "http://www.w3.org/Graphics/SVG/1.1/DTD/svg11.dtd">
<svg version="1.1" id="symbiote-logo" xmlns="http://www.w3.org/2000/svg" xmlns:xlink="http://www.w3.org/1999/xlink" x="0px" y="0px"
	 width="124px" height="124px" viewBox="0 0 124 124" enable-background="new 0 0 124 124" xml:space="preserve">
<path fill="#FFFFFF" d="M36.104,72.25l0.871-0.87h10.465l0.875,0.87c0,6.098,3.486,9.579,13.952,9.579
	c7.851,0,12.21-2.61,12.21-7.837c0-6.094-3.49-7.835-15.701-9.576c-12.206-1.74-21.801-6.092-21.801-18.283
	c0-7.012,4.538-13.449,14.96-15.692L27.654,2.96L22.177,0.5H3.082L0.25,3.048v24.836l32.891,31.921v2.465L0.25,96.745v24.623
	l2.74,2.467h16.441l5.486-2.467l27.21-30.088C41.157,88.696,36.104,81.316,36.104,72.25"/>
<path fill="#FFFFFF" d="M90.697,62.27v-2.461l32.887-32.011V3.173L120.613,0.5h-16l-5.478,2.46L71.361,31.042
	c8.826,2.722,12.708,9.049,12.708,16.835l-0.874,0.871H72.732l-0.873-0.871c0-4.757-2.19-7.345-9.826-7.77h-1.489l-0.05-0.052
	c-0.282-0.005-0.549-0.018-0.846-0.018c-7.847,0-10.461,2.612-10.461,6.093c0,5.228,3.485,6.968,15.696,8.709
	c12.206,1.74,21.801,6.962,21.801,19.153c0,7.529-4.348,14.508-15.105,17.15l27.332,30.227l5.485,2.463h16.443l2.744-2.463V96.746
	L90.697,62.27"/>
</svg>
