<?xml version="1.0" encoding="utf-8"?><!DOCTYPE svg PUBLIC "-//W3C//DTD SVG 1.1//EN" "http://www.w3.org/Graphics/SVG/1.1/DTD/svg11.dtd"><svg xmlns="http://www.w3.org/2000/svg" xmlns:xlink="http://www.w3.org/1999/xlink" width="369" height="153" viewBox="0 0 369.4 152.7"><style>.a{clip-path:url(#SVGID_2_);fill:#FFF;}</style><defs><rect width="369.4" height="152.7"/></defs><clipPath><use xlink:href="#SVGID_1_"/></clipPath><path d="M56.5 93.5c-13 0-18.8-6.5-18.8-14.9l0.6-0.6h7.8l0.6 0.6c0 4.5 2.6 7.1 10.4 7.1 5.8 0 9.1-1.9 9.1-5.8 0-4.5-2.6-5.8-11.7-7.1 -9.1-1.3-16.2-4.5-16.2-13.6 0-6.5 5.2-12.3 17.5-12.3 12.3 0 17.5 5.8 17.5 13.6l-0.6 0.6h-7.8l-0.6-0.6c0-3.9-1.9-5.8-9.1-5.8 -5.8 0-7.8 1.9-7.8 4.5 0 3.9 2.6 5.2 11.7 6.5 9.1 1.3 16.2 5.2 16.2 14.3C75.3 87 70.1 93.5 56.5 93.5" class="a"/><path d="M98.7 93.5c-2.6 6.5-5.2 10.4-14.3 10.4H81.1l-0.6-0.6v-6.5l0.6-0.6h3.2c3.2 0 3.9-0.6 4.5-2.6v-0.6L78.5 67.5V61l0.6-0.6h5.8l0.7 0.6 7.8 22.1h0.6l7.8-22.1 0.7-0.6h5.8l0.7 0.6v6.5L98.7 93.5z" class="a"/><path d="M161.6 92.8h-7.8l-0.6-0.6V73.4c0-3.2-1.3-5.8-5.2-5.8 -3.9 0-5.8 2.6-5.8 7.1v17.5l-0.6 0.6h-7.8l-0.6-0.6V73.4c0-3.2-1.3-5.8-5.2-5.8s-5.8 2.6-5.8 7.1v17.5l-0.6 0.6h-7.8l-0.6-0.6V61l0.6-0.6h7.1l0.6 0.6 0.6 1.9h0.7c0 0 1.9-3.2 7.8-3.2 5.2 0 7.8 2.6 9.1 4.5h0.6c0 0 2.6-4.5 9.7-4.5 7.8 0 12.3 4.5 12.3 13v19.5L161.6 92.8z" class="a"/><path d="M183 67.5c-5.2 0-7.1 3.9-7.1 9.1 0 5.2 1.9 9.1 7.1 9.1 5.2 0 7.1-3.9 7.1-9.1C190.2 71.4 188.2 67.5 183 67.5M185 93.5c-5.8 0-8.4-3.2-8.4-3.2h-0.6l-0.6 1.9 -0.6 0.7h-7.1l-0.6-0.7V48l0.6-0.6h7.8l0.6 0.6v14.9h0.7c0 0 2.6-3.2 8.4-3.2 7.8 0 14.3 6.5 14.3 16.9C199.3 87 192.8 93.5 185 93.5" class="a"/><path d="M211 92.8h-7.8l-0.6-0.6V61l0.6-0.6h7.8l0.6 0.6v31.2L211 92.8zM211 55.2h-7.8l-0.6-0.6v-6.5l0.6-0.6h7.8l0.6 0.6v6.5L211 55.2z" class="a"/><path d="M231.1 67.5c-4.5 0-7.1 3.2-7.1 9.1 0 5.8 2.6 9.1 7.1 9.1s7.1-3.2 7.1-9.1C238.2 70.8 235.6 67.5 231.1 67.5M231.1 93.5c-9.7 0-16.2-6.5-16.2-16.9 0-10.4 6.5-16.9 16.2-16.9s16.2 6.5 16.2 16.9C247.3 87 240.8 93.5 231.1 93.5" class="a"/><path d="M263.5 83.1c0 1.3 0.6 1.9 1.9 1.9h5.8l0.6 0.6v6.5l-0.6 0.7h-5.8c-5.8 0-11-2.6-11-9.7V68.8l-0.6-0.6h-4.5l-0.6-0.6v-6.5l0.6-0.6h4.5l0.6-0.6V53.9l0.7-0.6h7.8l0.6 0.7v5.8l0.6 0.6h7.1l0.6 0.6v6.5l-0.6 0.6h-7.1l-0.6 0.6V83.1z" class="a"/><path d="M295.3 72.7c0-0.6-0.6-5.2-5.8-5.2 -5.2 0-5.8 4.5-5.8 5.2l0.6 0.6h10.4L295.3 72.7zM305.1 79.2l-0.6 0.6h-20.1l-0.6 0.7c0 1.3 1.3 5.2 6.5 5.2 1.9 0 3.9-0.6 4.5-1.9l0.6-0.6h7.8l0.6 0.6c-0.6 3.9-3.9 9.7-13.6 9.7 -11 0-16.2-7.8-16.2-16.9s5.2-16.9 15.6-16.9c10.4 0 15.6 7.8 15.6 16.9V79.2z" class="a"/><path d="M315.2 60l0.2-0.2h1.8l0.2 0.2c0 1.1 0.6 1.7 2.5 1.7 1.4 0 2.2-0.5 2.2-1.4 0-1.1-0.6-1.4-2.8-1.7 -2.1-0.3-3.8-1.1-3.8-3.2 0-1.2 0.8-2.4 2.6-2.8l-4.3-4.8 -1-0.4h-3.4l-0.5 0.5v4.4l5.8 5.6v0.4l-5.8 6.1v4.3l0.5 0.4h2.9l1-0.4 4.8-5.3C316.1 62.9 315.2 61.6 315.2 60" class="a"/><path d="M324.8 58.3v-0.4l5.8-5.6v-4.3l-0.5-0.5h-2.8l-1 0.4 -4.9 4.9c1.6 0.5 2.2 1.6 2.2 3l-0.2 0.2h-1.8l-0.2-0.2c0-0.8-0.4-1.3-1.7-1.4h-0.3l0 0c0 0-0.1 0-0.1 0 -1.4 0-1.8 0.5-1.8 1.1 0 0.9 0.6 1.2 2.8 1.5 2.2 0.3 3.8 1.2 3.8 3.4 0 1.3-0.8 2.6-2.7 3l4.8 5.3 1 0.4h2.9l0.5-0.4v-4.3L324.8 58.3z" class="a"/></svg>